<?xml version="1.0" encoding="UTF-8" standalone="no"?>
<svg width="1052px" height="416px" viewBox="0 0 1052 416" version="1.1" xmlns="http://www.w3.org/2000/svg" xmlns:xlink="http://www.w3.org/1999/xlink" xmlns:sketch="http://www.bohemiancoding.com/sketch/ns">
    <!-- Generator: Sketch 3.4.4 (17249) - http://www.bohemiancoding.com/sketch -->
    <title>aws-partner</title>
    <desc>Created with Sketch.</desc>
    <defs>
        <path id="path-1" d="M0,0.269631579 L486.197008,0.269631579 L486.197008,188 L0,188 L0,0.269631579 Z"></path>
    </defs>
    <g id="Page-1" stroke="none" stroke-width="1" fill="none" fill-rule="evenodd" sketch:type="MSPage">
        <g id="aws-partner" sketch:type="MSLayerGroup">
            <g id="Page-1-+-Line-+-Partner" transform="translate(71.000000, 53.000000)">
                <g id="Page-1" transform="translate(0.000000, 12.000000)">
                    <path d="M62.6103557,180.403811 L34.0285364,170.168942 L34.0285364,128.355021 L62.6103557,138.075363 L62.6103557,180.403811 Z" id="Fill-1" fill="#FF9900" sketch:type="MSShapeGroup"></path>
                    <path d="M67.8521115,180.403811 L96.4339308,170.168942 L96.4339308,128.355021 L67.8521115,138.075363 L67.8521115,180.403811 Z" id="Fill-2" fill="#FF9900" sketch:type="MSShapeGroup"></path>
                    <path d="M36.9656545,125.227789 L65.8932066,117.1005 L92.7153822,125.732421 L65.8932066,134.821974 L36.9656545,125.227789 Z" id="Fill-3" fill="#FF9900" sketch:type="MSShapeGroup"></path>
                    <path d="M0,111.75425 L28.5818193,121.989118 L28.5818193,79.6581974 L0,69.9403289 L0,111.75425 Z" id="Fill-4" fill="#FF9900" sketch:type="MSShapeGroup"></path>
                    <path d="M33.8240707,121.988376 L62.4071293,111.754745 L62.4071293,69.9408237 L33.8240707,79.6586921 L33.8240707,121.988376 Z" id="Fill-5" fill="#FF9900" sketch:type="MSShapeGroup"></path>
                    <path d="M2.93761374,66.8111184 L31.8651659,58.6850658 L58.6885807,67.3169868 L31.8651659,76.4053026 L2.93761374,66.8111184 Z" id="Fill-6" fill="#FF9900" sketch:type="MSShapeGroup"></path>
                    <path d="M95.2757878,121.988376 L66.6927293,111.754745 L66.6927293,69.9408237 L95.2757878,79.6586921 L95.2757878,121.988376 Z" id="Fill-7" fill="#FF9900" sketch:type="MSShapeGroup"></path>
                    <path d="M100.516924,121.988376 L129.099982,111.754745 L129.099982,69.9408237 L100.516924,79.6586921 L100.516924,121.988376 Z" id="Fill-8" fill="#FF9900" sketch:type="MSShapeGroup"></path>
                    <path d="M69.6309626,66.8111184 L98.5572756,58.6850658 L125.38069,67.3169868 L98.5572756,76.4053026 L69.6309626,66.8111184 Z" id="Fill-9" fill="#FF9900" sketch:type="MSShapeGroup"></path>
                    <path d="M129.303085,63.5723237 L100.721266,53.3399289 L100.721266,11.5247711 L129.303085,21.2438763 L129.303085,63.5723237 Z" id="Fill-10" fill="#FF9900" sketch:type="MSShapeGroup"></path>
                    <path d="M134.544841,63.5723237 L163.127899,53.3399289 L163.127899,11.5247711 L134.544841,21.2438763 L134.544841,63.5723237 Z" id="Fill-11" fill="#FF9900" sketch:type="MSShapeGroup"></path>
                    <path d="M132.585192,0.269260526 L103.658879,8.39531316 L132.585192,17.9907342 L159.408607,8.90118158 L132.585192,0.269260526 Z" id="Fill-12" fill="#FF9900" sketch:type="MSShapeGroup"></path>
                    <path d="M195.995938,63.5723237 L167.41288,53.3399289 L167.41288,11.5247711 L195.995938,21.2438763 L195.995938,63.5723237 Z" id="Fill-13" fill="#FF9900" sketch:type="MSShapeGroup"></path>
                    <path d="M201.23757,63.5723237 L229.820628,53.3399289 L229.820628,11.5247711 L201.23757,21.2438763 L201.23757,63.5723237 Z" id="Fill-14" fill="#FF9900" sketch:type="MSShapeGroup"></path>
                    <path d="M199.278169,0.269260526 L170.351856,8.39531316 L199.278169,17.9907342 L226.100345,8.90118158 L199.278169,0.269260526 Z" id="Fill-15" fill="#FF9900" sketch:type="MSShapeGroup"></path>
                    <path d="M181.457191,153.165455 L171.85598,186.456297 L167.682403,186.456297 L160.207634,161.72935 L153.352459,186.456297 L149.099573,186.456297 L139.12041,153.165455 L144.28038,153.165455 L151.548204,177.974034 L158.466578,153.165455 L162.274596,153.165455 L169.795214,178.053192 L177.266265,153.165455 L181.457191,153.165455 Z" id="Fill-16" fill="#000000" sketch:type="MSShapeGroup"></path>
                    <g id="Group-58">
                        <path d="M181.457191,153.165455 L171.85598,186.456297 L167.682403,186.456297 L160.207634,161.72935 L153.352459,186.456297 L149.099573,186.456297 L139.12041,153.165455 L144.28038,153.165455 L151.548204,177.974034 L158.466578,153.165455 L162.274596,153.165455 L169.795214,178.053192 L177.266265,153.165455 L181.457191,153.165455 L181.457191,153.165455 Z" id="Stroke-17" stroke="#000000" sketch:type="MSShapeGroup"></path>
                        <path d="M207.73363,166.393853 C207.689019,164.527458 207.38294,162.868853 206.810436,161.420511 C206.239172,159.969695 205.272607,158.735326 203.910741,157.712458 C202.548876,156.692063 200.911912,156.181247 199.001088,156.181247 C196.431016,156.181247 194.250049,157.103932 192.460665,158.9493 C190.670042,160.794668 189.666301,163.275774 189.445726,166.393853 L207.73363,166.393853 Z M208.016164,176.524826 L212.848988,177.5143 C211.970406,180.361511 210.255373,182.718932 207.707607,184.582853 C205.156123,186.449247 202.157294,187.381826 198.706161,187.381826 C194.15711,187.381826 190.476729,185.782589 187.662538,182.580405 C184.849586,179.380695 183.44311,175.184089 183.44311,169.993063 C183.44311,164.690721 184.90535,160.407537 187.828589,157.142274 C190.750589,153.874537 194.421057,152.241905 198.839993,152.241905 C203.193253,152.241905 206.692713,153.744668 209.340853,156.752668 C211.990233,159.761905 213.347141,164.2603 213.412818,170.2528 L189.204085,170.2528 C189.204085,175.287984 190.257393,178.683116 192.367726,180.441905 C194.474342,182.200695 196.704876,183.078853 199.054373,183.078853 C203.293627,183.078853 206.280065,180.894589 208.016164,176.524826 L208.016164,176.524826 Z" id="Fill-19" fill="#000000" sketch:type="MSShapeGroup"></path>
                        <path d="M207.73363,166.393853 C207.689019,164.527458 207.38294,162.868853 206.810436,161.420511 C206.239172,159.969695 205.272607,158.735326 203.910741,157.712458 C202.548876,156.692063 200.911912,156.181247 199.001088,156.181247 C196.431016,156.181247 194.250049,157.103932 192.460665,158.9493 C190.670042,160.794668 189.666301,163.275774 189.445726,166.393853 L207.73363,166.393853 L207.73363,166.393853 Z M208.016164,176.524826 L212.848988,177.5143 C211.970406,180.361511 210.255373,182.718932 207.707607,184.582853 C205.156123,186.449247 202.157294,187.381826 198.706161,187.381826 C194.15711,187.381826 190.476729,185.782589 187.662538,182.580405 C184.849586,179.380695 183.44311,175.184089 183.44311,169.993063 C183.44311,164.690721 184.90535,160.407537 187.828589,157.142274 C190.750589,153.874537 194.421057,152.241905 198.839993,152.241905 C203.193253,152.241905 206.692713,153.744668 209.340853,156.752668 C211.990233,159.761905 213.347141,164.2603 213.412818,170.2528 L189.204085,170.2528 C189.204085,175.287984 190.257393,178.683116 192.367726,180.441905 C194.474342,182.200695 196.704876,183.078853 199.054373,183.078853 C203.293627,183.078853 206.280065,180.894589 208.016164,176.524826 L208.016164,176.524826 Z" id="Stroke-21" stroke="#000000" sketch:type="MSShapeGroup"></path>
                        <path d="M225.436265,173.404274 C225.677907,176.822905 226.727497,179.301537 228.586276,180.846353 C230.445054,182.388695 232.407924,183.160484 234.474886,183.160484 C237.113113,183.160484 239.240795,182.016405 240.856693,179.729484 C242.47383,177.4438 243.281779,174.309642 243.281779,170.330721 C243.281779,166.043826 242.501092,162.673432 240.939718,160.220774 C239.378344,157.769353 237.211008,156.542405 234.442667,156.542405 C232.264179,156.542405 230.302548,157.415616 228.554057,159.159563 C226.805566,160.905984 225.765889,163.161984 225.436265,165.927563 L225.436265,173.404274 Z M222.737319,186.456668 L220.24036,186.456668 L220.24036,141.506116 L225.436265,141.506116 L225.436265,158.7143 C227.808067,154.398958 231.078278,152.241905 235.250617,152.241905 C239.069787,152.241905 242.269365,153.747142 244.850589,156.762563 C247.429334,159.775511 248.720566,164.152695 248.720566,169.892879 C248.720566,174.842721 247.4504,178.9948 244.913787,182.347879 C242.373456,185.703432 239.072265,187.381826 235.006497,187.381826 C230.479751,187.381826 227.007553,185.235905 224.589902,180.949011 L222.737319,186.456668 Z" id="Fill-23" fill="#000000" sketch:type="MSShapeGroup"></path>
                        <path d="M225.436265,173.404274 C225.677907,176.822905 226.727497,179.301537 228.586276,180.846353 C230.445054,182.388695 232.407924,183.160484 234.474886,183.160484 C237.113113,183.160484 239.240795,182.016405 240.856693,179.729484 C242.47383,177.4438 243.281779,174.309642 243.281779,170.330721 C243.281779,166.043826 242.501092,162.673432 240.939718,160.220774 C239.378344,157.769353 237.211008,156.542405 234.442667,156.542405 C232.264179,156.542405 230.302548,157.415616 228.554057,159.159563 C226.805566,160.905984 225.765889,163.161984 225.436265,165.927563 L225.436265,173.404274 L225.436265,173.404274 Z M222.737319,186.456668 L220.24036,186.456668 L220.24036,141.506116 L225.436265,141.506116 L225.436265,158.7143 C227.808067,154.398958 231.078278,152.241905 235.250617,152.241905 C239.069787,152.241905 242.269365,153.747142 244.850589,156.762563 C247.429334,159.775511 248.720566,164.152695 248.720566,169.892879 C248.720566,174.842721 247.4504,178.9948 244.913787,182.347879 C242.373456,185.703432 239.072265,187.381826 235.006497,187.381826 C230.479751,187.381826 227.007553,185.235905 224.589902,180.949011 L222.737319,186.456668 L222.737319,186.456668 Z" id="Stroke-25" stroke="#000000" sketch:type="MSShapeGroup"></path>
                        <path d="M261.962009,177.828582 L266.916274,176.80695 C268.01791,180.988713 271.497543,183.078976 277.355174,183.078976 C279.511358,183.078976 281.340396,182.597845 282.837332,181.633108 C284.335508,180.669608 285.083976,179.310318 285.083976,177.556476 C285.083976,174.95045 283.178108,173.295555 279.366373,172.594266 L272.34019,171.259713 C269.589197,170.732818 267.400795,169.700055 265.772505,168.161424 C264.145454,166.622792 263.331309,164.590661 263.331309,162.062555 C263.331309,159.273476 264.44162,156.938318 266.66348,155.059555 C268.884101,153.180792 271.874256,152.242029 275.636424,152.242029 C282.872029,152.242029 287.339294,155.064503 289.032022,160.708213 L284.278505,161.728608 C282.914162,158.271634 280.112363,156.542529 275.871869,156.542529 C273.759057,156.542529 272.027915,156.975424 270.675963,157.838739 C269.324011,158.702055 268.648655,159.909213 268.648655,161.462687 C268.648655,163.909161 270.37608,165.449029 273.83093,166.084766 L280.324263,167.277082 C287.123676,168.507739 290.521523,171.800213 290.521523,177.147082 C290.521523,180.205792 289.256314,182.677003 286.723419,184.557003 C284.193001,186.440713 280.826134,187.38195 276.620337,187.38195 C268.719289,187.38195 263.83194,184.195845 261.962009,177.828582" id="Fill-27" fill="#000000" sketch:type="MSShapeGroup"></path>
                        <path d="M261.962009,177.828582 L266.916274,176.80695 C268.01791,180.988713 271.497543,183.078976 277.355174,183.078976 C279.511358,183.078976 281.340396,182.597845 282.837332,181.633108 C284.335508,180.669608 285.083976,179.310318 285.083976,177.556476 C285.083976,174.95045 283.178108,173.295555 279.366373,172.594266 L272.34019,171.259713 C269.589197,170.732818 267.400795,169.700055 265.772505,168.161424 C264.145454,166.622792 263.331309,164.590661 263.331309,162.062555 C263.331309,159.273476 264.44162,156.938318 266.66348,155.059555 C268.884101,153.180792 271.874256,152.242029 275.636424,152.242029 C282.872029,152.242029 287.339294,155.064503 289.032022,160.708213 L284.278505,161.728608 C282.914162,158.271634 280.112363,156.542529 275.871869,156.542529 C273.759057,156.542529 272.027915,156.975424 270.675963,157.838739 C269.324011,158.702055 268.648655,159.909213 268.648655,161.462687 C268.648655,163.909161 270.37608,165.449029 273.83093,166.084766 L280.324263,167.277082 C287.123676,168.507739 290.521523,171.800213 290.521523,177.147082 C290.521523,180.205792 289.256314,182.677003 286.723419,184.557003 C284.193001,186.440713 280.826134,187.38195 276.620337,187.38195 C268.719289,187.38195 263.83194,184.195845 261.962009,177.828582 L261.962009,177.828582 Z" id="Stroke-29" stroke="#000000" sketch:type="MSShapeGroup"></path>
                        <path d="M317.874194,166.393853 C317.830822,164.527458 317.522265,162.868853 316.95224,161.420511 C316.379736,159.969695 315.41441,158.735326 314.052545,157.712458 C312.69068,156.692063 311.052476,156.181247 309.142891,156.181247 C306.57282,156.181247 304.391853,157.103932 302.60123,158.9493 C300.810606,160.794668 299.805626,163.275774 299.586291,166.393853 L317.874194,166.393853 Z M318.156728,176.524826 L322.989553,177.5143 C322.112209,180.361511 320.397176,182.718932 317.846932,184.582853 C315.299166,186.449247 312.297858,187.381826 308.847965,187.381826 C304.297675,187.381826 300.616054,185.782589 297.804341,182.580405 C294.990151,179.380695 293.583675,175.184089 293.583675,169.993063 C293.583675,164.690721 295.044675,160.407537 297.971632,157.142274 C300.893632,153.874537 304.5641,152.241905 308.983036,152.241905 C313.332578,152.241905 316.834517,153.744668 319.482657,156.752668 C322.132036,159.761905 323.488945,164.2603 323.553382,170.2528 L299.344649,170.2528 C299.344649,175.287984 300.399196,178.683116 302.507051,180.441905 C304.617385,182.200695 306.845441,183.078853 309.196176,183.078853 C313.434191,183.078853 316.421868,180.894589 318.156728,176.524826 L318.156728,176.524826 Z" id="Fill-31" fill="#000000" sketch:type="MSShapeGroup"></path>
                        <path d="M317.874194,166.393853 C317.830822,164.527458 317.522265,162.868853 316.95224,161.420511 C316.379736,159.969695 315.41441,158.735326 314.052545,157.712458 C312.69068,156.692063 311.052476,156.181247 309.142891,156.181247 C306.57282,156.181247 304.391853,157.103932 302.60123,158.9493 C300.810606,160.794668 299.805626,163.275774 299.586291,166.393853 L317.874194,166.393853 L317.874194,166.393853 Z M318.156728,176.524826 L322.989553,177.5143 C322.112209,180.361511 320.397176,182.718932 317.846932,184.582853 C315.299166,186.449247 312.297858,187.381826 308.847965,187.381826 C304.297675,187.381826 300.616054,185.782589 297.804341,182.580405 C294.990151,179.380695 293.583675,175.184089 293.583675,169.993063 C293.583675,164.690721 295.044675,160.407537 297.971632,157.142274 C300.893632,153.874537 304.5641,152.241905 308.983036,152.241905 C313.332578,152.241905 316.834517,153.744668 319.482657,156.752668 C322.132036,159.761905 323.488945,164.2603 323.553382,170.2528 L299.344649,170.2528 C299.344649,175.287984 300.399196,178.683116 302.507051,180.441905 C304.617385,182.200695 306.845441,183.078853 309.196176,183.078853 C313.434191,183.078853 316.421868,180.894589 318.156728,176.524826 L318.156728,176.524826 Z" id="Stroke-33" stroke="#000000" sketch:type="MSShapeGroup"></path>
                        <path d="M334.33814,186.456297 L329.142234,186.456297 L329.142234,153.165455 L333.693763,153.165455 L333.693763,160.925403 C335.298509,157.290324 336.910689,154.935376 338.526588,153.858087 C340.142486,152.779561 341.798038,152.241534 343.492005,152.241534 C344.018659,152.241534 344.70145,152.281113 345.536661,152.362745 L345.536661,157.307639 L344.484593,157.307639 C341.628269,157.307639 339.256468,158.366376 337.367949,160.48385 C335.480669,162.601324 334.470733,165.382982 334.33814,168.832534 L334.33814,186.456297 Z" id="Fill-35" fill="#000000" sketch:type="MSShapeGroup"></path>
                        <path d="M334.33814,186.456297 L329.142234,186.456297 L329.142234,153.165455 L333.693763,153.165455 L333.693763,160.925403 C335.298509,157.290324 336.910689,154.935376 338.526588,153.858087 C340.142486,152.779561 341.798038,152.241534 343.492005,152.241534 C344.018659,152.241534 344.70145,152.281113 345.536661,152.362745 L345.536661,157.307639 L344.484593,157.307639 C341.628269,157.307639 339.256468,158.366376 337.367949,160.48385 C335.480669,162.601324 334.470733,165.382982 334.33814,168.832534 L334.33814,186.456297 L334.33814,186.456297 Z" id="Stroke-37" stroke="#000000" sketch:type="MSShapeGroup"></path>
                        <path d="M377.811254,153.165455 L366.295501,186.456297 L360.91,186.456297 L349.010099,153.165455 L354.758682,153.165455 L364.015399,180.225087 L373.201483,153.165455 L377.811254,153.165455 Z" id="Fill-39" fill="#000000" sketch:type="MSShapeGroup"></path>
                        <path d="M377.811254,153.165455 L366.295501,186.456297 L360.91,186.456297 L349.010099,153.165455 L354.758682,153.165455 L364.015399,180.225087 L373.201483,153.165455 L377.811254,153.165455 L377.811254,153.165455 Z" id="Stroke-41" stroke="#000000" sketch:type="MSShapeGroup"></path>
                        <mask id="mask-2" sketch:name="Clip 44" fill="white">
                            <use xlink:href="#path-1"></use>
                        </mask>
                        <g id="Clip-44"></g>
                        <path d="M387.402924,186.456421 L382.207018,186.456421 L382.207018,153.165579 L387.402924,153.165579 L387.402924,186.456421 Z M387.524364,147.255947 L381.965377,147.255947 L381.965377,141.507105 L387.524364,141.507105 L387.524364,147.255947 Z" id="Fill-43" fill="#000000" sketch:type="MSShapeGroup" mask="url(#mask-2)"></path>
                        <path d="M387.402924,186.456421 L382.207018,186.456421 L382.207018,153.165579 L387.402924,153.165579 L387.402924,186.456421 Z M387.524364,147.255947 L381.965377,147.255947 L381.965377,141.507105 L387.524364,141.507105 L387.524364,147.255947 Z" id="Stroke-45" stroke="#000000" sketch:type="MSShapeGroup" mask="url(#mask-2)"></path>
                        <path d="M414.548775,174.796958 L419.220505,175.619458 C418.561258,179.299063 417.099019,182.178432 414.832548,184.2588 C412.567317,186.340405 409.740734,187.381826 406.354039,187.381826 C401.75666,187.381826 398.253482,185.687353 395.844505,182.299642 C393.436767,178.913168 392.231039,174.777168 392.231039,169.892879 C392.231039,164.834195 393.502444,160.627695 396.042775,157.273379 C398.581866,153.917826 402.041673,152.241905 406.418477,152.241905 C410.049291,152.241905 412.95766,153.325379 415.146062,155.4948 C417.335703,157.661747 418.692612,160.461958 419.220505,163.896668 L414.548775,164.784721 C413.668953,159.291905 411.010899,156.542405 406.570897,156.542405 C403.713334,156.542405 401.515019,157.755747 399.978428,160.181195 C398.43936,162.607879 397.669825,165.751932 397.669825,169.614589 C397.669825,173.873037 398.433164,177.180353 399.96108,179.540247 C401.488996,181.898905 403.636505,183.078853 406.407324,183.078853 C410.691189,183.078853 413.405006,180.318221 414.548775,174.796958" id="Fill-46" fill="#000000" sketch:type="MSShapeGroup" mask="url(#mask-2)"></path>
                        <path d="M414.548775,174.796958 L419.220505,175.619458 C418.561258,179.299063 417.099019,182.178432 414.832548,184.2588 C412.567317,186.340405 409.740734,187.381826 406.354039,187.381826 C401.75666,187.381826 398.253482,185.687353 395.844505,182.299642 C393.436767,178.913168 392.231039,174.777168 392.231039,169.892879 C392.231039,164.834195 393.502444,160.627695 396.042775,157.273379 C398.581866,153.917826 402.041673,152.241905 406.418477,152.241905 C410.049291,152.241905 412.95766,153.325379 415.146062,155.4948 C417.335703,157.661747 418.692612,160.461958 419.220505,163.896668 L414.548775,164.784721 C413.668953,159.291905 411.010899,156.542405 406.570897,156.542405 C403.713334,156.542405 401.515019,157.755747 399.978428,160.181195 C398.43936,162.607879 397.669825,165.751932 397.669825,169.614589 C397.669825,173.873037 398.433164,177.180353 399.96108,179.540247 C401.488996,181.898905 403.636505,183.078853 406.407324,183.078853 C410.691189,183.078853 413.405006,180.318221 414.548775,174.796958 L414.548775,174.796958 Z" id="Stroke-47" stroke="#000000" sketch:type="MSShapeGroup" mask="url(#mask-2)"></path>
                        <path d="M448.242855,166.393853 C448.199483,164.527458 447.890926,162.868853 447.319661,161.420511 C446.748397,159.969695 445.783071,158.735326 444.421206,157.712458 C443.058102,156.692063 441.421137,156.181247 439.510313,156.181247 C436.939002,156.181247 434.759275,157.103932 432.96989,158.9493 C431.178028,160.794668 430.173048,163.275774 429.954951,166.393853 L448.242855,166.393853 Z M448.525389,176.524826 L453.358213,177.5143 C452.479631,180.361511 450.765837,182.718932 448.215593,184.582853 C445.667827,186.449247 442.666519,187.381826 439.216626,187.381826 C434.666336,187.381826 430.983476,185.782589 428.171763,182.580405 C425.357572,179.380695 423.951096,175.184089 423.951096,169.993063 C423.951096,164.690721 425.413336,160.407537 428.339053,157.142274 C431.261053,153.874537 434.932761,152.241905 439.350458,152.241905 C443.701239,152.241905 447.203178,153.744668 449.851318,156.752668 C452.499458,159.761905 453.856366,164.2603 453.922043,170.2528 L429.71331,170.2528 C429.71331,175.287984 430.766618,178.683116 432.875712,180.441905 C434.986046,182.200695 437.212862,183.078853 439.564837,183.078853 C443.801613,183.078853 446.78929,180.894589 448.525389,176.524826 L448.525389,176.524826 Z" id="Fill-48" fill="#000000" sketch:type="MSShapeGroup" mask="url(#mask-2)"></path>
                        <path d="M448.242855,166.393853 C448.199483,164.527458 447.890926,162.868853 447.319661,161.420511 C446.748397,159.969695 445.783071,158.735326 444.421206,157.712458 C443.058102,156.692063 441.421137,156.181247 439.510313,156.181247 C436.939002,156.181247 434.759275,157.103932 432.96989,158.9493 C431.178028,160.794668 430.173048,163.275774 429.954951,166.393853 L448.242855,166.393853 L448.242855,166.393853 Z M448.525389,176.524826 L453.358213,177.5143 C452.479631,180.361511 450.765837,182.718932 448.215593,184.582853 C445.667827,186.449247 442.666519,187.381826 439.216626,187.381826 C434.666336,187.381826 430.983476,185.782589 428.171763,182.580405 C425.357572,179.380695 423.951096,175.184089 423.951096,169.993063 C423.951096,164.690721 425.413336,160.407537 428.339053,157.142274 C431.261053,153.874537 434.932761,152.241905 439.350458,152.241905 C443.701239,152.241905 447.203178,153.744668 449.851318,156.752668 C452.499458,159.761905 453.856366,164.2603 453.922043,170.2528 L429.71331,170.2528 C429.71331,175.287984 430.766618,178.683116 432.875712,180.441905 C434.986046,182.200695 437.212862,183.078853 439.564837,183.078853 C443.801613,183.078853 446.78929,180.894589 448.525389,176.524826 L448.525389,176.524826 Z" id="Stroke-49" stroke="#000000" sketch:type="MSShapeGroup" mask="url(#mask-2)"></path>
                        <path d="M456.856559,177.828582 L461.812063,176.80695 C462.913699,180.988713 466.392093,183.078976 472.249724,183.078976 C474.407147,183.078976 476.234946,182.597845 477.731882,181.633108 C479.230058,180.669608 479.978526,179.310318 479.978526,177.556476 C479.978526,174.95045 478.072658,173.295555 474.260923,172.594266 L467.235979,171.259713 C464.483747,170.732818 462.296584,169.700055 460.667055,168.161424 C459.041243,166.622792 458.225859,164.590661 458.225859,162.062555 C458.225859,159.273476 459.336169,156.938318 461.559269,155.059555 C463.77865,153.180792 466.770045,152.242029 470.532213,152.242029 C477.767818,152.242029 482.233844,155.064503 483.926572,160.708213 L479.173055,161.728608 C477.809951,158.271634 475.008152,156.542529 470.766419,156.542529 C468.656085,156.542529 466.923704,156.975424 465.571752,157.838739 C464.219801,158.702055 463.544444,159.909213 463.544444,161.462687 C463.544444,163.909161 465.271869,165.449029 468.726719,166.084766 L475.220052,167.277082 C482.018225,168.507739 485.417312,171.800213 485.417312,177.147082 C485.417312,180.205792 484.152103,182.677003 481.619208,184.557003 C479.08879,186.440713 475.720683,187.38195 471.516126,187.38195 C463.613839,187.38195 458.727729,184.195845 456.856559,177.828582" id="Fill-50" fill="#000000" sketch:type="MSShapeGroup" mask="url(#mask-2)"></path>
                        <path d="M456.856559,177.828582 L461.812063,176.80695 C462.913699,180.988713 466.392093,183.078976 472.249724,183.078976 C474.407147,183.078976 476.234946,182.597845 477.731882,181.633108 C479.230058,180.669608 479.978526,179.310318 479.978526,177.556476 C479.978526,174.95045 478.072658,173.295555 474.260923,172.594266 L467.235979,171.259713 C464.483747,170.732818 462.296584,169.700055 460.667055,168.161424 C459.041243,166.622792 458.225859,164.590661 458.225859,162.062555 C458.225859,159.273476 459.336169,156.938318 461.559269,155.059555 C463.77865,153.180792 466.770045,152.242029 470.532213,152.242029 C477.767818,152.242029 482.233844,155.064503 483.926572,160.708213 L479.173055,161.728608 C477.809951,158.271634 475.008152,156.542529 470.766419,156.542529 C468.656085,156.542529 466.923704,156.975424 465.571752,157.838739 C464.219801,158.702055 463.544444,159.909213 463.544444,161.462687 C463.544444,163.909161 465.271869,165.449029 468.726719,166.084766 L475.220052,167.277082 C482.018225,168.507739 485.417312,171.800213 485.417312,177.147082 C485.417312,180.205792 484.152103,182.677003 481.619208,184.557003 C479.08879,186.440713 475.720683,187.38195 471.516126,187.38195 C463.613839,187.38195 458.727729,184.195845 456.856559,177.828582 L456.856559,177.828582 Z" id="Stroke-51" stroke="#000000" sketch:type="MSShapeGroup" mask="url(#mask-2)"></path>
                        <path d="M339.732935,82.0143816 L339.732935,74.0181974 C339.737892,72.8011447 340.656128,71.9897763 341.76396,71.9910132 L377.671846,71.9885395 C378.820571,71.9885395 379.741286,72.8221711 379.743764,74.0083026 L379.741286,80.8665921 C379.732612,82.0168553 378.762329,83.5183816 377.037383,85.9005395 L358.438444,112.407303 C365.343187,112.245276 372.646948,113.276803 378.919706,116.796855 C380.334856,117.589671 380.712808,118.765908 380.824334,119.918645 L380.824334,128.450382 C380.824334,129.626618 379.535581,130.987145 378.181151,130.279671 C367.127614,124.501145 352.460612,123.867882 340.239762,130.348934 C338.990663,131.013118 337.684561,129.672382 337.684561,128.496145 L337.684561,120.384934 C337.684561,119.087487 337.708105,116.867355 339.020403,114.888408 L360.569843,84.0304342 L341.807332,84.0279605 C340.659846,84.0279605 339.74037,83.2116447 339.732935,82.0143816" id="Fill-52" fill="#000000" sketch:type="MSShapeGroup" mask="url(#mask-2)"></path>
                        <path d="M211.224292,131.960416 L200.300869,131.960416 C199.261193,131.892389 198.429699,131.111942 198.345434,130.117521 L198.352869,74.1541263 C198.352869,73.0347842 199.297129,72.1393105 200.461964,72.1393105 L210.634439,72.1368368 C211.700139,72.1912579 212.553938,72.9952053 212.622093,74.0156 L212.622093,81.3228632 L212.826559,81.3228632 C215.478417,74.2567842 220.474813,70.9593632 227.204831,70.9593632 C234.036462,70.9593632 238.319088,74.2567842 241.379877,81.3228632 C244.030495,74.2567842 250.046742,70.9593632 256.47192,70.9593632 C261.060625,70.9593632 266.057022,72.8430737 269.116572,77.0829684 C272.583813,81.7928632 271.871282,88.6239421 271.871282,94.6300474 L271.862607,129.9456 C271.862607,131.063705 270.918348,131.960416 269.754752,131.960416 L258.843722,131.960416 C257.747042,131.889916 256.882091,131.022889 256.882091,129.950547 L256.879612,100.282416 C256.879612,97.9274684 257.084078,92.0388632 256.573534,89.8014158 C255.758149,86.0327579 253.310758,84.9727842 250.149595,84.9727842 C247.498976,84.9727842 244.744266,86.7389947 243.622803,89.5664158 C242.500101,92.3926 242.602953,97.1024947 242.602953,100.282416 L242.602953,129.9456 C242.602953,131.063705 241.659933,131.960416 240.496338,131.960416 L229.584068,131.960416 C228.488628,131.889916 227.622437,131.022889 227.622437,129.950547 L227.612523,100.282416 C227.612523,94.0413105 228.632373,84.8552842 220.882506,84.8552842 C213.029785,84.8552842 213.335864,93.8050737 213.335864,100.282416 L213.330908,129.9456 C213.332147,131.063705 212.389126,131.960416 211.224292,131.960416" id="Fill-53" fill="#000000" sketch:type="MSShapeGroup" mask="url(#mask-2)"></path>
                        <path d="M406.224296,83.8225211 C398.230309,83.8225211 397.725961,94.7747579 397.725961,101.6046 C397.725961,108.435679 397.624347,121.598153 406.122683,121.598153 C414.520645,121.598153 414.92462,111.261863 414.92462,104.078284 C414.92462,99.3671526 414.722632,93.7147842 413.306243,89.2398895 C412.089363,85.3537316 409.661798,83.8225211 406.224296,83.8225211 M406.122683,70.9593632 C422.207314,70.9593632 430.907637,84.8552842 430.907637,102.519863 C430.907637,119.594468 421.298991,133.139126 406.122683,133.139126 C390.341653,133.139126 381.741704,119.241968 381.741704,101.931126 C381.741704,84.5015474 390.443266,70.9593632 406.122683,70.9593632" id="Fill-54" fill="#000000" sketch:type="MSShapeGroup" mask="url(#mask-2)"></path>
                        <path d="M454.18822,131.960416 L443.304452,131.960416 C442.210251,131.889916 441.34406,131.022889 441.34406,129.950547 L441.326711,73.9661263 C441.418411,72.9432579 442.324256,72.1393105 443.425892,72.1393105 L453.558714,72.1368368 C454.512887,72.1850737 455.29977,72.8356526 455.500518,73.7039158 L455.500518,82.2641 L455.706223,82.2641 C458.764533,74.6092842 463.04592,70.9593632 470.592561,70.9593632 C475.486106,70.9593632 480.281754,72.7255737 483.340065,77.5542053 C486.196388,82.0291 486.196388,89.5664158 486.196388,94.9837842 L486.196388,130.196679 C486.072469,131.189863 485.182734,131.960416 484.103403,131.960416 L473.15148,131.960416 C472.139065,131.894863 471.323681,131.153995 471.204719,130.196679 L471.204719,99.8111789 C471.204719,93.6875737 471.919729,84.7377842 464.373088,84.7377842 C461.719991,84.7377842 459.273838,86.5039947 458.050762,89.2126789 C456.521607,92.6276 456.315902,96.0425211 456.315902,99.8111789 L456.315902,129.9456 C456.296075,131.063705 455.353055,131.960416 454.18822,131.960416" id="Fill-55" fill="#000000" sketch:type="MSShapeGroup" mask="url(#mask-2)"></path>
                        <path d="M323.359697,131.820282 C322.636013,132.46715 321.593858,132.511676 320.778474,132.073834 C317.150138,129.063361 316.500804,127.671913 314.516868,124.807387 C308.520448,130.905018 304.272519,132.733071 296.505303,132.733071 C287.308066,132.733071 280.154247,127.068334 280.154247,115.738861 C280.154247,106.886782 284.957331,100.868308 291.803832,97.9172026 C297.730858,95.3210711 306.009858,94.8485974 312.345815,94.1411237 L312.345815,92.7249395 C312.345815,90.1288079 312.55028,87.0589658 311.017407,84.8165711 C309.689,82.8104132 307.133799,81.9842026 304.885916,81.9842026 C300.719774,81.9842026 297.014608,84.1152816 296.105046,88.5320447 C295.91669,89.5140974 295.197962,90.4862553 294.207853,90.5369658 L283.61901,89.3928868 C282.724318,89.1912816 281.730491,88.4763868 281.988242,87.1133868 C284.422003,74.2910447 296.02326,70.4172553 306.418789,70.4172553 C311.732418,70.4172553 318.68301,71.8346763 322.872697,75.8469921 C328.187565,80.8042553 327.675781,87.4139395 327.675781,94.6135974 L327.675781,111.600387 C327.675781,116.711018 329.802224,118.952176 331.799792,121.706624 C332.496214,122.698571 332.653591,123.878518 331.762616,124.602071 C329.530842,126.469703 325.566687,129.906887 323.38572,131.845018 L323.359697,131.820282 Z M312.345815,105.234361 C312.345815,109.48415 312.447428,113.023992 310.302397,116.801308 C308.565059,119.869913 305.805392,121.758571 302.738407,121.758571 C298.54996,121.758571 296.096372,118.571229 296.096372,113.850203 C296.096372,104.563992 304.442288,102.874466 312.345815,102.874466 L312.345815,105.234361 Z" id="Fill-56" fill="#000000" sketch:type="MSShapeGroup" mask="url(#mask-2)"></path>
                        <path d="M181.388293,131.820282 C180.664608,132.46715 179.621214,132.511676 178.807069,132.073834 C175.177494,129.063361 174.52816,127.671913 172.544224,124.807387 C166.547804,130.905018 162.301115,132.733071 154.533898,132.733071 C145.335422,132.733071 138.182842,127.068334 138.182842,115.738861 C138.182842,106.886782 142.985926,100.868308 149.832427,97.9172026 C155.759453,95.3210711 164.038453,94.8485974 170.37317,94.1411237 L170.37317,92.7249395 C170.37317,90.1288079 170.577636,87.0589658 169.046003,84.8165711 C167.717595,82.8104132 165.161155,81.9842026 162.914511,81.9842026 C158.74713,81.9842026 155.041964,84.1152816 154.133641,88.5320447 C153.942807,89.5140974 153.225318,90.4862553 152.235209,90.5369658 L141.647606,89.3928868 C140.752913,89.1912816 139.757847,88.4763868 140.016837,87.1133868 C142.449359,74.2910447 154.050616,70.4172553 164.446145,70.4172553 C169.761013,70.4172553 176.710366,71.8346763 180.900053,75.8469921 C186.214921,80.8042553 185.703137,87.4139395 185.703137,94.6135974 L185.703137,111.600387 C185.703137,116.711018 187.82958,118.952176 189.825908,121.706624 C190.52357,122.698571 190.680947,123.878518 189.791211,124.602071 C187.559438,126.469703 183.594043,129.906887 181.413076,131.845018 L181.388293,131.820282 Z M170.37317,105.234361 C170.37317,109.48415 170.476023,113.023992 168.329753,116.801308 C166.593654,119.869913 163.833987,121.758571 160.767003,121.758571 C156.578555,121.758571 154.124967,118.571229 154.124967,113.850203 C154.124967,104.563992 162.470883,102.874466 170.37317,102.874466 L170.37317,105.234361 Z" id="Fill-57" fill="#000000" sketch:type="MSShapeGroup" mask="url(#mask-2)"></path>
                    </g>
                </g>
                <path d="M566.5,0.5 L566.5,224.5" id="Line" stroke="#000000" stroke-linecap="square" sketch:type="MSShapeGroup"></path>
                <path d="M651.55,94 L651.55,69.625 L670.975,69.625 C673.475013,69.625 675.76249,69.3125031 677.8375,68.6875 C679.91251,68.0624969 681.699993,67.1375061 683.2,65.9125 C684.700007,64.6874939 685.874996,63.1625091 686.725,61.3375 C687.575004,59.5124909 688,57.4250118 688,55.075 C688,50.2249758 686.575014,46.5750123 683.725,44.125 C680.874986,41.6749878 676.875026,40.45 671.725,40.45 L650.05,40.45 L650.05,94 L651.55,94 Z M651.55,68.125 L651.55,41.95 L671.725,41.95 C676.725025,41.95 680.437488,43.0749888 682.8625,45.325 C685.287512,47.5750113 686.5,50.8249788 686.5,55.075 C686.5,57.1750105 686.125004,59.024992 685.375,60.625 C684.624996,62.225008 683.587507,63.5874944 682.2625,64.7125 C680.937493,65.8375056 679.375009,66.6874971 677.575,67.2625 C675.774991,67.8375029 673.82501,68.125 671.725,68.125 L651.55,68.125 Z M696.641667,67.375 L698.141667,67.375 C698.391668,63.774982 699.641655,60.9875099 701.891667,59.0125 C704.141678,57.0374901 707.291646,56.05 711.341667,56.05 C713.891679,56.05 715.916659,56.3874966 717.416667,57.0625 C718.916674,57.7375034 720.054163,58.5999948 720.829167,59.65 C721.604171,60.7000053 722.091666,61.8499938 722.291667,63.1 C722.491668,64.3500063 722.591667,65.5499943 722.591667,66.7 C722.591667,68.1500073 722.30417,69.2624961 721.729167,70.0375 C721.154164,70.8125039 720.254173,71.3874981 719.029167,71.7625 C717.804161,72.1375019 716.241676,72.3874994 714.341667,72.5125 C712.441657,72.6375006 710.16668,72.7749993 707.516667,72.925 C705.916659,73.0250005 704.316675,73.2374984 702.716667,73.5625 C701.116659,73.8875016 699.691673,74.4624959 698.441667,75.2875 C697.19166,76.1125041 696.179171,77.2499928 695.404167,78.7 C694.629163,80.1500073 694.241667,82.074988 694.241667,84.475 C694.241667,87.9250173 695.416655,90.5124914 697.766667,92.2375 C700.116678,93.9625086 703.241647,94.825 707.141667,94.825 C709.141677,94.825 710.991658,94.5625026 712.691667,94.0375 C714.391675,93.5124974 715.90416,92.8000045 717.229167,91.9 C718.554173,90.9999955 719.654162,89.9750058 720.529167,88.825 C721.404171,87.6749943 722.041665,86.4750063 722.441667,85.225 L722.591667,85.225 L722.591667,90.25 C722.591667,91.7000073 723.004163,92.6874974 723.829167,93.2125 C724.654171,93.7375026 725.616661,94 726.716667,94 L728.966667,94 L728.966667,92.5 C728.466664,92.5500003 727.92917,92.5874999 727.354167,92.6125 C726.779164,92.6375001 726.241669,92.5875006 725.741667,92.4625 C725.241664,92.3374994 724.841668,92.1000018 724.541667,91.75 C724.241665,91.3999983 724.091667,90.8500038 724.091667,90.1 L724.091667,65.575 C724.041666,63.4749895 723.66667,61.725007 722.966667,60.325 C722.266663,58.924993 721.341672,57.7875044 720.191667,56.9125 C719.041661,56.0374956 717.704174,55.4250018 716.179167,55.075 C714.654159,54.7249983 713.041675,54.55 711.341667,54.55 C708.941655,54.55 706.854176,54.8749968 705.079167,55.525 C703.304158,56.1750033 701.804173,57.0749943 700.579167,58.225 C699.354161,59.3750058 698.41667,60.7374921 697.766667,62.3125 C697.116663,63.8875079 696.741667,65.574991 696.641667,67.375 L696.641667,67.375 Z M722.591667,71.35 L722.591667,78.475 C722.591667,80.3750095 722.25417,82.224991 721.579167,84.025 C720.904163,85.825009 719.904173,87.4124931 718.579167,88.7875 C717.25416,90.1625069 715.616676,91.2749958 713.666667,92.125 C711.716657,92.9750043 709.491679,93.4 706.991667,93.4 C704.891656,93.4 703.129174,93.1375026 701.704167,92.6125 C700.27916,92.0874974 699.116671,91.4125041 698.216667,90.5875 C697.316662,89.7624959 696.679169,88.8125054 696.304167,87.7375 C695.929165,86.6624946 695.741667,85.5750055 695.741667,84.475 C695.741667,82.4249898 696.066663,80.7625064 696.716667,79.4875 C697.36667,78.2124936 698.241661,77.2125036 699.341667,76.4875 C700.441672,75.7624964 701.70416,75.2625014 703.129167,74.9875 C704.554174,74.7124986 706.016659,74.5250005 707.516667,74.425 C709.016674,74.3249995 710.554159,74.2500003 712.129167,74.2 C713.704175,74.1499998 715.16666,74.025001 716.516667,73.825 C717.866673,73.624999 719.066661,73.3375019 720.116667,72.9625 C721.166672,72.5874981 721.941664,72.0500035 722.441667,71.35 L722.591667,71.35 Z M737.833333,94 L737.833333,72.175 C737.833333,70.0749895 738.13333,68.02501 738.733333,66.025 C739.333336,64.02499 740.258327,62.2625076 741.508333,60.7375 C742.75834,59.2124924 744.345824,58.0125044 746.270833,57.1375 C748.195843,56.2624956 750.48332,55.8999993 753.133333,56.05 L753.133333,54.55 C750.833322,54.4999998 748.820842,54.7499973 747.095833,55.3 C745.370825,55.8500028 743.88334,56.5999953 742.633333,57.55 C741.383327,58.5000048 740.383337,59.6124936 739.633333,60.8875 C738.88333,62.1625064 738.333335,63.5249928 737.983333,64.975 L737.833333,64.975 L737.833333,55.45 L736.333333,55.45 L736.333333,94 L737.833333,94 Z M763.425,56.95 L772.125,56.95 L772.125,55.45 L763.425,55.45 L763.425,43.3 L761.925,43.3 L761.925,55.45 L754.875,55.45 L754.875,56.95 L761.925,56.95 L761.925,86.8 C761.925,89.5500138 762.537494,91.4374949 763.7625,92.4625 C764.987506,93.4875051 766.474991,94 768.225,94 C769.375006,94 770.162498,93.9750003 770.5875,93.925 C771.012502,93.8749998 771.449998,93.8250003 771.9,93.775 L771.9,92.275 C771.649999,92.3750005 771.225003,92.4374999 770.625,92.4625 C770.024997,92.4875001 769.350004,92.5 768.6,92.5 C767.999997,92.5 767.400003,92.4625004 766.8,92.3875 C766.199997,92.3124996 765.650003,92.075002 765.15,91.675 C764.649998,91.274998 764.237502,90.675004 763.9125,89.875 C763.587499,89.074996 763.425,87.9500073 763.425,86.5 L763.425,56.95 Z M780.916667,55.45 L780.916667,94 L782.416667,94 L782.416667,72.175 C782.416667,70.0249893 782.716664,67.9750098 783.316667,66.025 C783.91667,64.0749903 784.804161,62.3625074 785.979167,60.8875 C787.154173,59.4124926 788.616658,58.2375044 790.366667,57.3625 C792.116676,56.4874956 794.141655,56.05 796.441667,56.05 C798.091675,56.05 799.65416,56.2874976 801.129167,56.7625 C802.604174,57.2375024 803.904161,57.9874949 805.029167,59.0125 C806.154173,60.0375051 807.041664,61.3374921 807.691667,62.9125 C808.34167,64.4875079 808.666667,66.3999888 808.666667,68.65 L808.666667,94 L810.166667,94 L810.166667,68.425 C810.166667,66.1749888 809.82917,64.1875086 809.154167,62.4625 C808.479164,60.7374914 807.529173,59.2875059 806.304167,58.1125 C805.079161,56.9374941 803.629175,56.050003 801.954167,55.45 C800.279159,54.849997 798.441677,54.55 796.441667,54.55 C794.541657,54.55 792.816675,54.8124974 791.266667,55.3375 C789.716659,55.8625026 788.354173,56.5999953 787.179167,57.55 C786.004161,58.5000048 785.029171,59.5999938 784.254167,60.85 C783.479163,62.1000063 782.916669,63.4749925 782.566667,64.975 L782.416667,64.975 L782.416667,55.45 L780.916667,55.45 Z M821.208334,75.025 L853.458334,75.025 C853.558334,72.3749868 853.295837,69.8250123 852.670834,67.375 C852.045831,64.9249878 851.045841,62.7500095 849.670834,60.85 C848.295827,58.9499905 846.520845,57.4250058 844.345834,56.275 C842.170823,55.1249943 839.583349,54.55 836.583334,54.55 C834.433323,54.55 832.333344,54.9999955 830.283334,55.9 C828.233323,56.8000045 826.433341,58.1124914 824.883334,59.8375 C823.333326,61.5625086 822.083338,63.6749875 821.133334,66.175 C820.183329,68.6750125 819.708334,71.524984 819.708334,74.725 C819.708334,77.5750143 820.03333,80.2374876 820.683334,82.7125 C821.333337,85.1875124 822.333327,87.3374909 823.683334,89.1625 C825.03334,90.9875091 826.770823,92.399995 828.895834,93.4 C831.020844,94.400005 833.583319,94.8750003 836.583334,94.825 C840.983356,94.825 844.683319,93.5875124 847.683334,91.1125 C850.683349,88.6374876 852.458331,85.1500225 853.008334,80.65 L851.508334,80.65 C850.85833,84.9000213 849.195847,88.0874894 846.520834,90.2125 C843.84582,92.3375106 840.483354,93.4 836.433334,93.4 C833.68332,93.4 831.358343,92.9250048 829.458334,91.975 C827.558324,91.0249953 826.00834,89.7250083 824.808334,88.075 C823.608328,86.4249918 822.720837,84.4875111 822.145834,82.2625 C821.570831,80.0374889 821.258334,77.625013 821.208334,75.025 L821.208334,75.025 Z M851.958334,73.525 L821.208334,73.525 C821.358334,70.8249865 821.858329,68.4000108 822.708334,66.25 C823.558338,64.0999893 824.670827,62.2625076 826.045834,60.7375 C827.420841,59.2124924 829.020825,58.050004 830.845834,57.25 C832.670843,56.449996 834.633323,56.05 836.733334,56.05 C839.233346,56.05 841.433324,56.5124954 843.333334,57.4375 C845.233343,58.3625046 846.820827,59.624992 848.095834,61.225 C849.37084,62.825008 850.33333,64.6874894 850.983334,66.8125 C851.633337,68.9375106 851.958334,71.1749883 851.958334,73.525 L851.958334,73.525 Z M864.5,94 L864.5,72.175 C864.5,70.0749895 864.799997,68.02501 865.4,66.025 C866.000003,64.02499 866.924994,62.2625076 868.175,60.7375 C869.425007,59.2124924 871.012491,58.0125044 872.9375,57.1375 C874.86251,56.2624956 877.149987,55.8999993 879.8,56.05 L879.8,54.55 C877.499989,54.4999998 875.487509,54.7499973 873.7625,55.3 C872.037492,55.8500028 870.550007,56.5999953 869.3,57.55 C868.049994,58.5000048 867.050004,59.6124936 866.3,60.8875 C865.549997,62.1625064 865.000002,63.5249928 864.65,64.975 L864.5,64.975 L864.5,55.45 L863,55.45 L863,94 L864.5,94 Z M650.05,128.47446 L650.05,182.02446 L651.55,182.02446 L651.55,130.34946 L651.7,130.34946 L688.3,182.02446 L690.55,182.02446 L690.55,128.47446 L689.05,128.47446 L689.05,180.14946 L688.9,180.14946 L652.3,128.47446 L650.05,128.47446 Z M701.516667,163.04946 L733.766667,163.04946 C733.866667,160.399447 733.60417,157.849472 732.979167,155.39946 C732.354164,152.949448 731.354174,150.774469 729.979167,148.87446 C728.60416,146.97445 726.829178,145.449466 724.654167,144.29946 C722.479156,143.149454 719.891682,142.57446 716.891667,142.57446 C714.741656,142.57446 712.641677,143.024455 710.591667,143.92446 C708.541656,144.824464 706.741674,146.136951 705.191667,147.86196 C703.641659,149.586968 702.391671,151.699447 701.441667,154.19946 C700.491662,156.699472 700.016667,159.549444 700.016667,162.74946 C700.016667,165.599474 700.341663,168.261947 700.991667,170.73696 C701.64167,173.211972 702.64166,175.361951 703.991667,177.18696 C705.341673,179.011969 707.079156,180.424455 709.204167,181.42446 C711.329177,182.424465 713.891652,182.89946 716.891667,182.84946 C721.291689,182.84946 724.991652,181.611972 727.991667,179.13696 C730.991682,176.661947 732.766664,173.174482 733.316667,168.67446 L731.816667,168.67446 C731.166663,172.924481 729.50418,176.111949 726.829167,178.23696 C724.154153,180.36197 720.791687,181.42446 716.741667,181.42446 C713.991653,181.42446 711.666676,180.949465 709.766667,179.99946 C707.866657,179.049455 706.316673,177.749468 705.116667,176.09946 C703.916661,174.449452 703.02917,172.511971 702.454167,170.28696 C701.879164,168.061949 701.566667,165.649473 701.516667,163.04946 L701.516667,163.04946 Z M732.266667,161.54946 L701.516667,161.54946 C701.666667,158.849446 702.166662,156.424471 703.016667,154.27446 C703.866671,152.124449 704.97916,150.286967 706.354167,148.76196 C707.729174,147.236952 709.329158,146.074464 711.154167,145.27446 C712.979176,144.474456 714.941656,144.07446 717.041667,144.07446 C719.541679,144.07446 721.741657,144.536955 723.641667,145.46196 C725.541676,146.386964 727.12916,147.649452 728.404167,149.24946 C729.679173,150.849468 730.641663,152.711949 731.291667,154.83696 C731.94167,156.96197 732.266667,159.199448 732.266667,161.54946 L732.266667,161.54946 Z M747.433333,144.97446 L756.133333,144.97446 L756.133333,143.47446 L747.433333,143.47446 L747.433333,131.32446 L745.933333,131.32446 L745.933333,143.47446 L738.883333,143.47446 L738.883333,144.97446 L745.933333,144.97446 L745.933333,174.82446 C745.933333,177.574474 746.545827,179.461955 747.770833,180.48696 C748.99584,181.511965 750.483325,182.02446 752.233333,182.02446 C753.383339,182.02446 754.170831,181.99946 754.595833,181.94946 C755.020836,181.89946 755.458331,181.84946 755.908333,181.79946 L755.908333,180.29946 C755.658332,180.39946 755.233336,180.46196 754.633333,180.48696 C754.03333,180.51196 753.358337,180.52446 752.608333,180.52446 C752.00833,180.52446 751.408336,180.48696 750.808333,180.41196 C750.20833,180.336959 749.658336,180.099462 749.158333,179.69946 C748.658331,179.299458 748.245835,178.699464 747.920833,177.89946 C747.595832,177.099456 747.433333,175.974467 747.433333,174.52446 L747.433333,144.97446 Z M811.275,143.47446 L799.575,180.52446 L799.425,180.52446 L787.575,143.47446 L785.25,143.47446 L773.325,180.52446 L773.175,180.52446 L761.7,143.47446 L760.275,143.47446 L772.2,182.02446 L774.3,182.02446 L786.375,144.97446 L786.525,144.97446 L798.525,182.02446 L800.475,182.02446 L812.775,143.47446 L811.275,143.47446 Z M819.316667,162.74946 C819.316667,160.349448 819.654164,158.024471 820.329167,155.77446 C821.00417,153.524449 822.01666,151.536968 823.366667,149.81196 C824.716674,148.086951 826.379157,146.699465 828.354167,145.64946 C830.329177,144.599455 832.616654,144.07446 835.216667,144.07446 C837.76668,144.07446 840.029157,144.599455 842.004167,145.64946 C843.979177,146.699465 845.64166,148.086951 846.991667,149.81196 C848.341674,151.536968 849.354164,153.524449 850.029167,155.77446 C850.70417,158.024471 851.041667,160.349448 851.041667,162.74946 C851.041667,165.199472 850.70417,167.549449 850.029167,169.79946 C849.354164,172.049471 848.341674,174.036951 846.991667,175.76196 C845.64166,177.486968 843.979177,178.861955 842.004167,179.88696 C840.029157,180.911965 837.76668,181.42446 835.216667,181.42446 C832.616654,181.42446 830.329177,180.911965 828.354167,179.88696 C826.379157,178.861955 824.716674,177.486968 823.366667,175.76196 C822.01666,174.036951 821.00417,172.049471 820.329167,169.79946 C819.654164,167.549449 819.316667,165.199472 819.316667,162.74946 L819.316667,162.74946 Z M817.816667,162.74946 C817.816667,165.399473 818.191663,167.936948 818.941667,170.36196 C819.691671,172.786972 820.80416,174.924451 822.279167,176.77446 C823.754174,178.624469 825.566656,180.099454 827.716667,181.19946 C829.866678,182.299465 832.341653,182.84946 835.141667,182.84946 C837.991681,182.84946 840.491656,182.299465 842.641667,181.19946 C844.791678,180.099454 846.60416,178.624469 848.079167,176.77446 C849.554174,174.924451 850.666663,172.786972 851.416667,170.36196 C852.166671,167.936948 852.541667,165.399473 852.541667,162.74946 C852.541667,160.099447 852.166671,157.561972 851.416667,155.13696 C850.666663,152.711948 849.554174,150.574469 848.079167,148.72446 C846.60416,146.874451 844.791678,145.386965 842.641667,144.26196 C840.491656,143.136954 838.016681,142.57446 835.216667,142.57446 C832.366653,142.57446 829.866678,143.136954 827.716667,144.26196 C825.566656,145.386965 823.754174,146.874451 822.279167,148.72446 C820.80416,150.574469 819.691671,152.711948 818.941667,155.13696 C818.191663,157.561972 817.816667,160.099447 817.816667,162.74946 L817.816667,162.74946 Z M863.808334,182.02446 L863.808334,160.19946 C863.808334,158.099449 864.108331,156.04947 864.708334,154.04946 C865.308337,152.04945 866.233327,150.286967 867.483334,148.76196 C868.73334,147.236952 870.320824,146.036964 872.245834,145.16196 C874.170843,144.286955 876.45832,143.924459 879.108334,144.07446 L879.108334,142.57446 C876.808322,142.52446 874.795842,142.774457 873.070834,143.32446 C871.345825,143.874463 869.85834,144.624455 868.608334,145.57446 C867.358327,146.524465 866.358337,147.636953 865.608334,148.91196 C864.85833,150.186966 864.308335,151.549453 863.958334,152.99946 L863.808334,152.99946 L863.808334,143.47446 L862.308334,143.47446 L862.308334,182.02446 L863.808334,182.02446 Z M886.775,167.47446 L896.75,159.22446 L914.825,182.02446 L916.85,182.02446 L897.875,158.17446 L915.575,143.47446 L913.4,143.47446 L886.775,165.59946 L886.775,128.47446 L885.275,128.47446 L885.275,182.02446 L886.775,182.02446 L886.775,167.47446 Z" id="Partner" fill="#000000" sketch:type="MSShapeGroup"></path>
            </g>
            <path d="M272.776,350.56 L271.816,350.56 C271.559999,352.448009 271.064004,354.207992 270.328,355.84 C269.591996,357.472008 268.632006,358.879994 267.448,360.064 C266.263994,361.248006 264.856008,362.175997 263.224,362.848 C261.591992,363.520003 259.75201,363.856 257.704,363.856 C255.399988,363.856 253.344009,363.392005 251.536,362.464 C249.727991,361.535995 248.200006,360.304008 246.952,358.768 C245.703994,357.231992 244.760003,355.45601 244.12,353.44 C243.479997,351.42399 243.16,349.328011 243.16,347.152 C243.16,345.359991 243.423997,343.45601 243.952,341.44 C244.480003,339.42399 245.335994,337.560009 246.52,335.848 C247.704006,334.135991 249.26399,332.712006 251.2,331.576 C253.13601,330.439994 255.511986,329.872 258.328,329.872 C260.184009,329.872 261.871992,330.167997 263.392,330.76 C264.912008,331.352003 266.223994,332.127995 267.328,333.088 C268.432006,334.048005 269.303997,335.127994 269.944,336.328 C270.584003,337.528006 270.952,338.751994 271.048,340 L272.008,340 C271.976,338.943995 271.672003,337.776006 271.096,336.496 C270.519997,335.215994 269.664006,334.008006 268.528,332.872 C267.391994,331.735994 265.976008,330.792004 264.28,330.04 C262.583992,329.287996 260.600011,328.912 258.328,328.912 C255.415985,328.912 252.93601,329.471994 250.888,330.592 C248.83999,331.712006 247.176006,333.151991 245.896,334.912 C244.615994,336.672009 243.680003,338.631989 243.088,340.792 C242.495997,342.952011 242.2,345.07199 242.2,347.152 C242.2,349.712013 242.583996,352.071989 243.352,354.232 C244.120004,356.392011 245.183993,358.247992 246.544,359.8 C247.904007,361.352008 249.53599,362.567996 251.44,363.448 C253.34401,364.328004 255.431989,364.768 257.704,364.768 C259.880011,364.768 261.831991,364.416004 263.56,363.712 C265.288009,363.007996 266.783994,362.032006 268.048,360.784 C269.312006,359.535994 270.343996,358.040009 271.144,356.296 C271.944004,354.551991 272.487999,352.64001 272.776,350.56 L272.776,350.56 Z M280.936,346.864 C280.936,344.431988 281.279997,342.128011 281.968,339.952 C282.656003,337.775989 283.663993,335.872008 284.992,334.24 C286.320007,332.607992 287.96799,331.312005 289.936,330.352 C291.90401,329.391995 294.167987,328.912 296.728,328.912 C299.288013,328.912 301.55199,329.391995 303.52,330.352 C305.48801,331.312005 307.135993,332.607992 308.464,334.24 C309.792007,335.872008 310.799997,337.775989 311.488,339.952 C312.176003,342.128011 312.52,344.431988 312.52,346.864 C312.52,349.296012 312.176003,351.599989 311.488,353.776 C310.799997,355.952011 309.792007,357.855992 308.464,359.488 C307.135993,361.120008 305.48801,362.407995 303.52,363.352 C301.55199,364.296005 299.288013,364.768 296.728,364.768 C294.167987,364.768 291.90401,364.296005 289.936,363.352 C287.96799,362.407995 286.320007,361.120008 284.992,359.488 C283.663993,357.855992 282.656003,355.952011 281.968,353.776 C281.279997,351.599989 280.936,349.296012 280.936,346.864 L280.936,346.864 Z M281.896,346.864 C281.928,349.328012 282.287997,351.59999 282.976,353.68 C283.664003,355.76001 284.639994,357.551992 285.904,359.056 C287.168006,360.560008 288.711991,361.735996 290.536,362.584 C292.360009,363.432004 294.423988,363.856 296.728,363.856 C299.032012,363.856 301.095991,363.432004 302.92,362.584 C304.744009,361.735996 306.287994,360.560008 307.552,359.056 C308.816006,357.551992 309.791997,355.76001 310.48,353.68 C311.168003,351.59999 311.528,349.328012 311.56,346.864 C311.528,344.399988 311.168003,342.12801 310.48,340.048 C309.791997,337.96799 308.816006,336.176008 307.552,334.672 C306.287994,333.167992 304.744009,331.992004 302.92,331.144 C301.095991,330.295996 299.032012,329.872 296.728,329.872 C294.423988,329.872 292.360009,330.295996 290.536,331.144 C288.711991,331.992004 287.168006,333.167992 285.904,334.672 C284.639994,336.176008 283.664003,337.96799 282.976,340.048 C282.287997,342.12801 281.928,344.399988 281.896,346.864 L281.896,346.864 Z M322.12,329.728 L322.12,364 L323.08,364 L323.08,330.928 L323.176,330.928 L346.6,364 L348.04,364 L348.04,329.728 L347.08,329.728 L347.08,362.8 L346.984,362.8 L323.56,329.728 L322.12,329.728 Z M381.64,339.328 L382.6,339.328 C382.503999,337.40799 382.136003,335.784007 381.496,334.456 C380.855997,333.127993 380.000005,332.056004 378.928,331.24 C377.855995,330.423996 376.608007,329.832002 375.184,329.464 C373.759993,329.095998 372.200008,328.912 370.504,328.912 C369.127993,328.912 367.744007,329.055999 366.352,329.344 C364.959993,329.632001 363.704006,330.111997 362.584,330.784 C361.463994,331.456003 360.552003,332.359994 359.848,333.496 C359.143996,334.632006 358.792,336.047992 358.792,337.744 C358.792,339.408008 359.127997,340.759995 359.8,341.8 C360.472003,342.840005 361.359994,343.671997 362.464,344.296 C363.568005,344.920003 364.807993,345.407998 366.184,345.76 C367.560007,346.112002 368.935993,346.447998 370.312,346.768 C371.624007,347.088002 372.991993,347.399998 374.416,347.704 C375.840007,348.008002 377.135994,348.455997 378.304,349.048 C379.472006,349.640003 380.431996,350.439995 381.184,351.448 C381.936004,352.456005 382.312,353.823991 382.312,355.552 C382.312,357.024007 381.984003,358.287995 381.328,359.344 C380.671997,360.400005 379.816005,361.263997 378.76,361.936 C377.703995,362.608003 376.512007,363.095998 375.184,363.4 C373.855993,363.704002 372.520007,363.856 371.176,363.856 C369.351991,363.856 367.680008,363.656002 366.16,363.256 C364.639992,362.855998 363.328005,362.208004 362.224,361.312 C361.119994,360.415996 360.264003,359.256007 359.656,357.832 C359.047997,356.407993 358.744,354.67201 358.744,352.624 L357.784,352.624 C357.752,354.800011 358.063997,356.655992 358.72,358.192 C359.376003,359.728008 360.303994,360.983995 361.504,361.96 C362.704006,362.936005 364.127992,363.647998 365.776,364.096 C367.424008,364.544002 369.22399,364.768 371.176,364.768 C372.648007,364.768 374.103993,364.600002 375.544,364.264 C376.984007,363.927998 378.279994,363.384004 379.432,362.632 C380.584006,361.879996 381.511996,360.928006 382.216,359.776 C382.920003,358.623994 383.272,357.232008 383.272,355.6 C383.272,353.807991 382.960003,352.384005 382.336,351.328 C381.711997,350.271995 380.872005,349.424003 379.816,348.784 C378.759995,348.143997 377.520007,347.632002 376.096,347.248 C374.671993,346.863998 373.160008,346.464002 371.56,346.048 C370.087993,345.695998 368.648007,345.360002 367.24,345.04 C365.831993,344.719998 364.576005,344.272003 363.472,343.696 C362.367994,343.119997 361.472003,342.368005 360.784,341.44 C360.095997,340.511995 359.752,339.280008 359.752,337.744 C359.752,336.207992 360.087997,334.936005 360.76,333.928 C361.432003,332.919995 362.287995,332.112003 363.328,331.504 C364.368005,330.895997 365.527994,330.472001 366.808,330.232 C368.088006,329.991999 369.319994,329.872 370.504,329.872 C372.040008,329.872 373.479993,330.031998 374.824,330.352 C376.168007,330.672002 377.327995,331.207996 378.304,331.96 C379.280005,332.712004 380.063997,333.687994 380.656,334.888 C381.248003,336.088006 381.576,337.567991 381.64,339.328 L381.64,339.328 Z M417.784,329.728 L417.784,351.232 C417.784,355.360021 416.840009,358.495989 414.952,360.64 C413.06399,362.784011 410.13602,363.856 406.168,363.856 C402.19998,363.856 399.272009,362.784011 397.384,360.64 C395.49599,358.495989 394.552,355.360021 394.552,351.232 L394.552,329.728 L393.592,329.728 L393.592,351.232 C393.592,355.840023 394.663989,359.247989 396.808,361.456 C398.952011,363.664011 402.071979,364.768 406.168,364.768 C410.26402,364.768 413.383989,363.664011 415.528,361.456 C417.672011,359.247989 418.744,355.840023 418.744,351.232 L418.744,329.728 L417.784,329.728 Z M450.424,363.04 L430.408,363.04 L430.408,329.728 L429.448,329.728 L429.448,364 L450.424,364 L450.424,363.04 Z M450.28,330.688 L462.568,330.688 L462.568,364 L463.528,364 L463.528,330.688 L475.864,330.688 L475.864,329.728 L450.28,329.728 L450.28,330.688 Z M483.16,329.728 L483.16,364 L484.12,364 L484.12,329.728 L483.16,329.728 Z M494.824,329.728 L494.824,364 L495.784,364 L495.784,330.928 L495.88,330.928 L519.304,364 L520.744,364 L520.744,329.728 L519.784,329.728 L519.784,362.8 L519.688,362.8 L496.264,329.728 L494.824,329.728 Z M546.952,348.928 L560.248,348.928 L560.248,350.704 C560.248,352.592009 559.896003,354.343992 559.192,355.96 C558.487996,357.576008 557.520006,358.967994 556.288,360.136 C555.055994,361.304006 553.608008,362.215997 551.944,362.872 C550.279992,363.528003 548.504009,363.856 546.616,363.856 C544.087987,363.856 541.872009,363.408004 539.968,362.512 C538.06399,361.615996 536.472006,360.400008 535.192,358.864 C533.911993,357.327992 532.952003,355.52801 532.312,353.464 C531.671997,351.39999 531.352,349.200012 531.352,346.864 C531.352,344.527988 531.687996,342.32801 532.36,340.264 C533.032003,338.19999 534.015993,336.400008 535.312,334.864 C536.608006,333.327992 538.19199,332.112004 540.064,331.216 C541.936009,330.319996 544.071988,329.872 546.472,329.872 C548.264009,329.872 549.903992,330.119998 551.392,330.616 C552.880007,331.112002 554.191994,331.823995 555.328,332.752 C556.464006,333.680005 557.407996,334.791994 558.16,336.088 C558.912004,337.384006 559.431998,338.831992 559.72,340.432 L560.68,340.432 C560.391998,338.671991 559.856004,337.088007 559.072,335.68 C558.287996,334.271993 557.280006,333.064005 556.048,332.056 C554.815994,331.047995 553.392008,330.272003 551.776,329.728 C550.159992,329.183997 548.392009,328.912 546.472,328.912 C543.943987,328.912 541.68801,329.375995 539.704,330.304 C537.71999,331.232005 536.040007,332.503992 534.664,334.12 C533.287993,335.736008 532.232004,337.639989 531.496,339.832 C530.759996,342.024011 530.392,344.367988 530.392,346.864 C530.392,349.328012 530.735996,351.647989 531.424,353.824 C532.112003,356.000011 533.127993,357.895992 534.472,359.512 C535.816007,361.128008 537.49599,362.407995 539.512,363.352 C541.52801,364.296005 543.847987,364.768 546.472,364.768 C549.864017,364.768 552.759988,363.952008 555.16,362.32 C557.560012,360.687992 559.223995,358.416015 560.152,355.504 L560.248,355.504 L560.248,364 L561.208,364 L561.208,347.968 L546.952,347.968 L546.952,348.928 Z M591.448,364 L591.448,348.4 L603.88,348.4 C605.480008,348.4 606.943993,348.200002 608.272,347.8 C609.600006,347.399998 610.743995,346.808004 611.704,346.024 C612.664005,345.239996 613.415997,344.264006 613.96,343.096 C614.504003,341.927994 614.776,340.592008 614.776,339.088 C614.776,335.983984 613.864009,333.648008 612.04,332.08 C610.215991,330.511992 607.656016,329.728 604.36,329.728 L590.488,329.728 L590.488,364 L591.448,364 Z M591.448,347.44 L591.448,330.688 L604.36,330.688 C607.560016,330.688 609.935992,331.407993 611.488,332.848 C613.040008,334.288007 613.816,336.367986 613.816,339.088 C613.816,340.432007 613.576002,341.615995 613.096,342.64 C612.615997,343.664005 611.952004,344.535996 611.104,345.256 C610.255996,345.976004 609.256006,346.519998 608.104,346.888 C606.951994,347.256002 605.704007,347.44 604.36,347.44 L591.448,347.44 Z M623.416,352.72 L640.888,352.72 L645.4,364 L646.456,364 L632.92,329.728 L631.672,329.728 L617.8,364 L618.856,364 L623.416,352.72 Z M640.504,351.76 L623.8,351.76 L632.248,330.688 L632.344,330.688 L640.504,351.76 Z M655,364 L655,347.92 L667.912,347.92 C669.89601,347.92 671.479994,348.119998 672.664,348.52 C673.848006,348.920002 674.759997,349.495996 675.4,350.248 C676.040003,351.000004 676.463999,351.927994 676.672,353.032 C676.880001,354.136006 676.984,355.391993 676.984,356.8 C676.984,357.344003 676.992,357.959997 677.008,358.648 C677.024,359.336003 677.056,360.015997 677.104,360.688 C677.152,361.360003 677.223999,361.991997 677.32,362.584 C677.416,363.176003 677.543999,363.647998 677.704,364 L678.76,364 C678.599999,363.775999 678.472,363.376003 678.376,362.8 C678.279999,362.223997 678.2,361.584004 678.136,360.88 C678.071999,360.175996 678.024,359.464004 677.992,358.744 C677.96,358.023996 677.944,357.424002 677.944,356.944 C677.944,355.567993 677.864001,354.336005 677.704,353.248 C677.543999,352.159995 677.224002,351.216004 676.744,350.416 C676.263997,349.615996 675.576004,348.968002 674.68,348.472 C673.783995,347.975998 672.616007,347.632001 671.176,347.44 L671.176,347.344 C673.576012,346.799997 675.415993,345.768008 676.696,344.248 C677.976006,342.727992 678.584,340.816012 678.52,338.512 C678.455999,335.503985 677.592008,333.288007 675.928,331.864 C674.263991,330.439993 671.640018,329.728 668.056,329.728 L654.04,329.728 L654.04,364 L655,364 Z M655,346.96 L655,330.688 L668.296,330.688 C671.560016,330.688 673.911993,331.367993 675.352,332.728 C676.792007,334.088007 677.528,335.983988 677.56,338.416 C677.56,339.920008 677.288002,341.207995 676.744,342.28 C676.199997,343.352005 675.480004,344.239996 674.584,344.944 C673.687995,345.648004 672.656006,346.159998 671.488,346.48 C670.319994,346.800002 669.096006,346.96 667.816,346.96 L655,346.96 Z M685.528,330.688 L697.816,330.688 L697.816,364 L698.776,364 L698.776,330.688 L711.112,330.688 L711.112,329.728 L685.528,329.728 L685.528,330.688 Z M718.408,329.728 L718.408,364 L719.368,364 L719.368,330.928 L719.464,330.928 L742.888,364 L744.328,364 L744.328,329.728 L743.368,329.728 L743.368,362.8 L743.272,362.8 L719.848,329.728 L718.408,329.728 Z M755.992,363.04 L755.992,346.624 L776.488,346.624 L776.488,345.664 L755.992,345.664 L755.992,330.688 L777.784,330.688 L777.784,329.728 L755.032,329.728 L755.032,364 L777.976,364 L777.976,363.04 L755.992,363.04 Z M787.288,364 L787.288,347.92 L800.2,347.92 C802.18401,347.92 803.767994,348.119998 804.952,348.52 C806.136006,348.920002 807.047996,349.495996 807.688,350.248 C808.328003,351.000004 808.751999,351.927994 808.96,353.032 C809.168001,354.136006 809.272,355.391993 809.272,356.8 C809.272,357.344003 809.28,357.959997 809.296,358.648 C809.312,359.336003 809.343999,360.015997 809.392,360.688 C809.44,361.360003 809.511999,361.991997 809.608,362.584 C809.704,363.176003 809.831999,363.647998 809.992,364 L811.048,364 C810.887999,363.775999 810.76,363.376003 810.664,362.8 C810.567999,362.223997 810.488,361.584004 810.424,360.88 C810.359999,360.175996 810.312,359.464004 810.28,358.744 C810.248,358.023996 810.232,357.424002 810.232,356.944 C810.232,355.567993 810.152,354.336005 809.992,353.248 C809.831999,352.159995 809.512002,351.216004 809.032,350.416 C808.551997,349.615996 807.864004,348.968002 806.968,348.472 C806.071995,347.975998 804.904007,347.632001 803.464,347.44 L803.464,347.344 C805.864012,346.799997 807.703993,345.768008 808.984,344.248 C810.264006,342.727992 810.872,340.816012 810.808,338.512 C810.743999,335.503985 809.880008,333.288007 808.216,331.864 C806.551991,330.439993 803.928018,329.728 800.344,329.728 L786.328,329.728 L786.328,364 L787.288,364 Z M787.288,346.96 L787.288,330.688 L800.584,330.688 C803.848016,330.688 806.199992,331.367993 807.64,332.728 C809.080007,334.088007 809.816,335.983988 809.848,338.416 C809.848,339.920008 809.576002,341.207995 809.032,342.28 C808.487997,343.352005 807.768004,344.239996 806.872,344.944 C805.975995,345.648004 804.944006,346.159998 803.776,346.48 C802.607994,346.800002 801.384006,346.96 800.104,346.96 L787.288,346.96 Z" id="CONSULTING-PARTNER" fill="#000000" sketch:type="MSShapeGroup"></path>
            <rect id="Rectangle-1" stroke="#000000" sketch:type="MSShapeGroup" x="0" y="0" width="1052" height="416" rx="17"></rect>
        </g>
    </g>
</svg>