<?xml version="1.0" encoding="UTF-8"?>
<svg width="317px" height="70px" viewBox="0 0 317 70" version="1.1" xmlns="http://www.w3.org/2000/svg" xmlns:xlink="http://www.w3.org/1999/xlink">
    <!-- Generator: Sketch 40.2 (33826) - http://www.bohemiancoding.com/sketch -->
    <title>Crecent removed</title>
    <desc>Created with Sketch.</desc>
    <defs></defs>
    <g id="Page-1" stroke="none" stroke-width="1" fill="none" fill-rule="evenodd">
        <g id="Crecent-removed" fill="#FFFFFF">
            <g id="Group-2" transform="translate(7.000000, 8.000000)">
                <g id="Group" transform="translate(186.000000, 0.000000)">
                    <path d="M34.42,10.873 C32.354,9.328 29.982,7.856 27.248,6.494 C27.949,5.936 28.503,5.38 28.914,4.853 C30.081,5.093 33.219,5.853 36.813,7.654 C36.515,8.62 35.809,9.711 34.42,10.873 L34.42,10.873 Z M41.002,18.868 C39.187,20.618 36.686,22.56 33.378,24.324 C32.009,21.469 30.342,18.498 28.303,15.508 C30.724,14.432 32.932,13.228 34.793,11.971 C36.874,13.74 39.055,16.009 41.002,18.868 L41.002,18.868 Z M20.667,28.745 C19.726,25.581 18.89,22.202 18.351,18.849 C21.463,18.124 24.548,17.103 27.386,15.905 C28.905,18.274 30.618,21.254 32.333,24.849 C29.137,26.438 25.28,27.839 20.667,28.745 L20.667,28.745 Z M17.742,10.637 C18.088,10.565 18.445,10.487 18.827,10.394 C20.138,10.077 21.344,9.679 22.442,9.233 C22.982,9.829 24.699,11.806 26.919,15.182 C24.198,16.43 21.187,17.589 18.284,18.399 C17.878,15.745 17.666,13.119 17.742,10.637 L17.742,10.637 Z M26.774,6.855 C27.88,7.331 30.71,8.686 33.929,11.255 C33.528,11.559 33.098,11.867 32.598,12.18 C31.245,13.026 29.599,13.918 27.793,14.779 C26.415,12.817 24.882,10.854 23.165,8.919 C24.581,8.288 25.79,7.577 26.774,6.855 L26.774,6.855 Z M10.402,19.557 C10.789,16.672 11.622,13.549 13.298,10.969 C14.208,11.093 15.456,11.059 17.17,10.746 C17.135,11.57 17.079,14.385 17.644,18.574 C14.996,19.27 12.474,19.667 10.402,19.557 L10.402,19.557 Z M36.988,6.704 C34.788,5.702 32.256,4.85 29.344,4.215 C29.653,3.678 29.788,3.191 29.72,2.797 C29.176,2.763 28.629,2.737 28.075,2.737 C27.359,2.737 26.652,2.774 25.951,2.834 C26.762,3.213 27.779,3.981 26.724,5.225 C25.125,7.105 19.25,10.864 13.846,10.581 C13.846,10.581 11.591,10.545 11.203,9.354 C11.13,9.422 11.059,9.492 10.985,9.56 C11.167,10.043 11.637,10.611 12.803,10.881 C12.352,11.576 10.413,14.787 9.773,19.506 C7.756,19.285 6.254,18.511 5.604,16.991 C5.521,17.166 5.443,17.343 5.364,17.519 C5.739,18.397 6.789,19.592 9.725,19.851 C9.43,22.323 9.497,25.185 10.321,28.298 C10.321,28.298 9.8,24.437 10.361,19.887 C11.31,19.924 12.424,19.876 13.752,19.7 C15.059,19.527 16.382,19.284 17.703,18.995 C18.1,21.781 18.772,25.132 19.894,28.883 C17.216,29.368 14.321,29.706 11.144,29.805 C11.144,29.805 14.761,30.032 19.995,29.217 C20.831,31.95 21.898,34.883 23.281,37.959 C20.01,38.657 17.841,38.827 17.841,38.827 C19.586,38.895 21.493,38.733 23.479,38.39 C24.17,39.899 24.938,41.442 25.783,43.006 C25.815,42.956 25.851,42.903 25.883,42.852 C25.386,41.729 24.722,40.175 23.98,38.295 C26.066,37.904 28.234,37.306 30.397,36.558 C30.569,36.34 30.739,36.12 30.912,35.902 C30.961,35.84 31.009,35.781 31.058,35.719 C28.404,36.694 25.899,37.379 23.803,37.846 C22.831,35.349 21.746,32.341 20.767,29.089 C24.27,28.493 28.413,27.422 32.657,25.542 C33.433,27.204 34.202,29.001 34.952,30.914 C35.227,30.58 35.497,30.249 35.765,29.922 C35.179,28.358 34.51,26.733 33.729,25.055 C36.443,23.767 39.178,22.135 41.791,20.068 C41.93,20.292 42.064,20.523 42.2,20.755 C42.386,20.33 42.543,19.91 42.684,19.494 L42.615,19.387 C42.665,19.346 42.716,19.301 42.766,19.259 C42.93,18.746 43.063,18.243 43.164,17.746 C43.269,17.231 43.339,16.724 43.384,16.228 C42.944,16.806 42.394,17.449 41.737,18.133 C40.085,15.896 37.997,13.682 35.357,11.585 C36.063,11.084 36.716,10.576 37.298,10.065 C37.873,9.561 38.315,9.092 38.663,8.66 C40.127,9.514 41.617,10.549 43.049,11.79 C43.024,11.688 43.005,11.584 42.979,11.485 C42.843,10.962 42.676,10.469 42.496,9.989 C41.514,9.235 40.428,8.514 39.224,7.84 C39.766,6.906 39.826,6.176 39.726,5.671 C39.96,5.797 40.193,5.929 40.423,6.063 L40.396,6.024 C39.064,5.262 37.657,4.616 36.185,4.107 L36.184,4.11 L36.208,4.118 C36.589,4.65 37.06,5.555 36.988,6.704 L36.988,6.704 Z" id="Fill-42"></path>
                    <path d="M46.598,11.151 C47.371,12.03 48.066,12.975 48.711,13.956 C49.531,16.078 49.794,17.848 49.769,19.285 C49.036,17.581 48.022,15.776 46.61,14.008 C46.588,13.854 46.568,13.699 46.541,13.55 C46.715,12.774 46.772,11.958 46.598,11.151 L46.598,11.151 Z M50.731,21.96 C51.133,20.615 51.141,19.329 50.938,18.166 C52.127,21.063 52.799,24.225 52.799,27.552 C52.799,27.639 52.792,27.724 52.79,27.812 C52.521,29.103 51.788,31.406 49.8,33.799 C49.2,34.52 48.514,35.269 47.71,36.034 C47.693,33.719 47.402,30.834 46.489,27.69 C47.101,27.161 47.684,26.628 48.202,26.091 C49.29,24.963 49.998,23.838 50.444,22.743 C50.982,24.345 51.391,26.082 51.638,27.971 C51.638,27.971 51.746,25.424 50.731,21.96 L50.731,21.96 Z M39.042,41.875 C38.784,40.373 38.401,38.524 37.845,36.428 C38.915,34.916 40.046,33.282 41.142,31.53 C42.741,30.555 44.231,29.526 45.557,28.467 C46.296,30.932 46.827,33.643 47.07,36.625 C45.163,38.325 42.629,40.104 39.042,41.875 L39.042,41.875 Z M32.799,44.527 C33.417,42.636 35.147,40.225 37.21,37.325 C37.691,38.853 38.154,40.436 38.59,42.09 C36.897,42.907 34.979,43.723 32.799,44.527 L32.799,44.527 Z M44.461,25.363 C44.714,25.993 44.954,26.642 45.179,27.31 C44.212,28.225 43.198,29.068 42.155,29.846 C42.983,28.42 43.767,26.926 44.461,25.363 L44.461,25.363 Z M45.865,21.69 C46.562,19.495 46.811,17.516 46.761,15.738 C47.854,17.192 48.834,18.832 49.64,20.677 C49.264,22.93 48.202,24.023 48.202,24.023 C47.537,24.874 46.825,25.662 46.088,26.417 C45.803,25.58 45.472,24.729 45.088,23.87 C45.369,23.156 45.63,22.43 45.865,21.69 L45.865,21.69 Z M45.192,9.596 C44.783,8.804 44.323,8.096 43.846,7.465 L43.761,7.355 C41.809,4.817 39.628,3.598 39.628,3.598 C39.628,3.598 40.594,4.477 41.686,6.024 L41.712,6.063 C42.003,6.477 42.301,6.935 42.592,7.439 L42.472,7.355 L42.558,7.465 L42.639,7.523 C43.058,8.256 43.45,9.087 43.787,9.989 C43.965,10.469 44.132,10.962 44.269,11.485 C44.294,11.584 44.314,11.688 44.338,11.79 C44.451,12.264 44.549,12.75 44.615,13.257 C44.621,13.307 44.63,13.358 44.637,13.41 C44.742,14.305 44.762,15.247 44.673,16.228 C44.629,16.724 44.559,17.231 44.453,17.746 C44.353,18.243 44.22,18.746 44.056,19.259 C44.03,19.337 44,19.416 43.974,19.494 C43.832,19.91 43.674,20.33 43.49,20.755 L43.482,20.775 C43.308,21.175 43.109,21.58 42.892,21.988 C42.8,22.162 42.715,22.333 42.614,22.508 C41.552,24.356 39.455,26.984 37.055,29.922 C36.787,30.249 36.517,30.58 36.242,30.914 L36.164,31.009 C35.901,31.33 35.636,31.655 35.368,31.981 C34.558,32.972 33.734,33.983 32.92,35 C32.729,35.239 32.537,35.479 32.347,35.719 C32.3,35.781 32.25,35.84 32.202,35.902 C32.03,36.12 31.858,36.34 31.688,36.558 C29.998,38.717 28.417,40.864 27.173,42.852 C27.141,42.903 27.106,42.956 27.074,43.006 C26.85,43.369 26.634,43.727 26.435,44.077 L26.401,44.134 C24.538,47.414 23.831,50.121 25.482,51.486 C26.139,52.027 26.856,52.381 27.609,52.589 L27.609,52.59 C29.948,53.377 34.807,52.083 37.712,50.644 C44.846,47.107 49.67,40.767 51.509,33.615 C49.557,39.877 45.146,45.362 38.806,48.506 C38.459,48.678 38.107,48.838 37.754,48.994 C36.092,49.332 33.873,49.248 32.77,46.895 C32.499,46.32 32.499,45.646 32.696,44.883 C34.28,44.409 36.36,43.666 38.702,42.532 C39.007,43.715 39.301,44.916 39.577,46.162 C39.577,46.162 39.508,44.735 39.116,42.33 C41.606,41.087 44.362,39.395 47.1,37.133 C47.199,38.543 47.242,40.002 47.204,41.532 C47.204,41.532 47.671,39.631 47.709,36.633 C48.697,35.784 49.682,34.858 50.646,33.846 C50.646,33.846 51.789,32.91 52.643,30.149 C52.677,29.997 52.726,29.849 52.803,29.716 C52.866,29.009 52.911,28.297 52.911,27.573 C52.911,20.494 49.945,14.115 45.192,9.596 L45.192,9.596 Z" id="Fill-43"></path>
                    <path d="M19.482,7.198 C21.998,6.327 23.749,4.787 23.393,3.756 C23.035,2.726 20.707,2.598 18.191,3.469 C15.677,4.339 13.926,5.88 14.282,6.91 C14.639,7.94 16.967,8.069 19.482,7.198" id="Fill-44"></path>
                </g>
                <path d="M25.43,41.419 C17.023,41.419 10.953,35.348 10.953,27.275 C10.953,19.07 17.023,13.066 25.43,13.066 C33.968,13.066 39.972,19.07 39.972,27.275 C39.972,35.348 33.968,41.419 25.43,41.419 L25.43,41.419 Z M25.43,3.658 C10.686,3.658 0.811,14.466 0.811,27.275 C0.811,39.682 10.351,50.826 25.295,50.826 C40.773,50.826 50.113,39.618 50.113,27.275 C50.113,14.466 40.439,3.658 25.43,3.658 L25.43,3.658 Z" id="Fill-45"></path>
                <polyline id="Fill-46" points="82.608 32.078 61.26 4.259 52.988 4.259 52.988 50.291 62.729 50.291 62.729 22.872 84.01 50.358 92.281 50.358 92.281 4.259 82.608 4.259 82.608 32.078"></polyline>
                <polyline id="Fill-47" points="104.963 31.544 120.241 31.544 120.241 22.071 104.963 22.071 104.963 13.665 120.641 13.665 122.71 4.259 95.223 4.259 95.223 50.291 122.91 50.291 122.91 40.885 104.963 40.885 104.963 31.544"></polyline>
                <path d="M154.203,40.885 C152.135,41.685 149.733,41.752 148.466,41.752 C138.859,41.752 133.856,34.346 133.856,27.142 C133.856,19.27 140.326,12.798 148.533,12.798 C151.534,12.798 157.005,13.665 160.407,16.735 L160.407,6.261 C155.736,3.927 150.867,3.725 148.466,3.725 C133.254,3.725 123.849,14.199 123.849,27.342 C123.849,40.418 133.722,50.826 148.466,50.826 C152.068,50.826 158.071,49.825 163.477,46.756 L163.477,25.807 L154.203,25.807 L154.203,40.885" id="Fill-48"></path>
                <polyline id="Fill-49" points="176.824 4.259 167.216 4.259 167.216 50.291 192.834 50.291 192.834 40.952 176.824 40.952 176.824 4.259"></polyline>
                <path d="M259.562,40.819 L250.956,40.819 L250.956,31.479 L258.762,31.479 C262.164,31.479 263.698,34.546 263.698,36.149 C263.698,38.016 262.231,40.819 259.562,40.819 L259.562,40.819 Z M250.956,13.665 L257.16,13.665 C259.562,13.665 260.629,15.867 260.629,17.802 C260.629,19.869 259.095,22.004 256.76,22.004 L250.956,22.004 L250.956,13.665 L250.956,13.665 Z M266.232,25.34 C269.303,23.873 270.169,20.337 270.169,17.068 C270.169,9.664 265.499,4.192 256.159,4.192 L241.216,4.192 L241.216,50.291 L260.296,50.291 C269.77,50.291 273.104,41.084 273.104,37.282 C273.104,33.545 272.171,28.009 266.232,25.34 L266.232,25.34 Z" id="Fill-50"></path>
                <polyline id="Fill-51" points="284.851 40.885 284.851 31.544 300.128 31.544 300.128 22.071 284.851 22.071 284.851 13.665 300.528 13.665 302.597 4.259 275.109 4.259 275.109 50.291 302.797 50.291 302.797 40.885 284.851 40.885"></polyline>
            </g>
        </g>
    </g>
</svg>